<svg xmlns="http://www.w3.org/2000/svg" xmlns:xlink="http://www.w3.org/1999/xlink" version="1.1" width="93.03800201416016" height="93.03800201416016" style="" xml:space="preserve"><rect id="backgroundrect" width="100%" height="100%" x="0" y="0" fill="none" stroke="none"/>
<g class="currentLayer" style=""><title>Layer 1</title><g id="svg_4">
</g><g id="svg_5">
</g><g id="svg_6">
</g><g id="svg_7">
</g><g id="svg_8">
</g><g id="svg_9">
</g><g id="svg_10">
</g><g id="svg_11">
</g><g id="svg_12">
</g><g id="svg_13">
</g><g id="svg_14">
</g><g id="svg_15">
</g><g id="svg_16">
</g><g id="svg_17">
</g>
	<path fill="#362413" d="M46.322784760713574,75.74521523928642 c0,1.6390000000000002 -0.9470000000000001,3.128 -2.4290000000000003,3.823 c-0.5730000000000001,0.271 -1.187,0.402 -1.7970000000000002,0.402 c-0.9660000000000001,0 -1.923,-0.3320000000000001 -2.696,-0.973 l-23.098,-19.14 H4.000784760713577 C1.6677847607135774,59.85921523928642 -0.22421523928642273,57.96621523928642 -0.22421523928642273,55.63321523928642 V38.80021523928642 c0,-2.334 1.8920000000000001,-4.226 4.225,-4.226 h12.303 l23.098,-19.14 c1.262,-1.046 3.012,-1.2690000000000001 4.493,-0.5690000000000001 c1.481,0.6950000000000002 2.4290000000000003,2.185 2.4290000000000003,3.823 L46.322784760713574,75.74521523928642 L46.322784760713574,75.74521523928642 zM62.559784760713576,69.14321523928642 c-0.10300000000000001,0.007000000000000002 -0.202,0.011000000000000003 -0.30400000000000005,0.011000000000000003 c-1.116,NaN NaN,NaN NaN,NaN " id="svg_2" class="" fill-opacity="1"/>
	<path d="M91.14421611522985,27.31336835230409 c-2.2650327541469957,-2.4248304620562746 -6.040087344391987,-2.4248304620562746 -8.305120098538982,0 l-9.899032036642424,10.597407204542236 l-9.899032036642424,-10.597407204542236 c-2.2650327541469957,-2.4248304620562746 -6.040087344391987,-2.4248304620562746 -8.305120098538982,0 c-2.2641938531269417,2.4248304620562746 -2.2641938531269417,6.466214565483398 0,8.89104502753967 l9.899870937662477,10.597407204542236 L54.73591184486706,57.39922778892823 c-2.2641938531269417,2.4248304620562746 -2.2641938531269417,6.466214565483398 0,8.89104502753967 c1.1744614280762196,1.256421413487677 2.684483264174217,1.8859792482659907 4.194505100272213,1.8859792482659907 c1.5108607371180518,0 3.0200436721959933,-0.6286597494219986 4.194505100272213,-1.8859792482659907 l9.899870937662477,-10.598305289898553 L82.9229861186963,66.2902728164679 c1.1744614280762196,1.256421413487677 2.6853221651942714,1.8859792482659907 4.194505100272213,1.8859792482659907 c1.5108607371180518,0 3.0208825732160496,-0.6286597494219986 4.194505100272213,-1.8859792482659907 c2.2658716551670497,-2.4248304620562746 2.2658716551670497,-6.466214565483398 0,-8.89104502753967 l-10.066812240653311,-10.597407204542236 l9.899870937662477,-10.597407204542236 C93.40924886937685,33.779582917787494 93.40924886937685,29.738198814360366 91.14421611522985,27.31336835230409 z" id="svg_3" class="" fill="#362413" fill-opacity="1"/>
<g id="svg_18">
</g></g></svg>